<svg xml:space="preserve" style="enable-background:new 0 0 1024 1024;" viewBox="0 0 1024 1024" y="0px" x="0px" xmlns:xlink="http://www.w3.org/1999/xlink" xmlns="http://www.w3.org/2000/svg" id="图层_1" version="1.1">
<style type="text/css">
	.st0{fill:#0D0F1A;}
	.st1{fill:#FFFFFF;}
	.st2{fill:#FFC617;}
	.st3{fill:#169FFF;}
	.st4{fill:#F5794D;}
	.st5{fill:#FED44A;}
</style>
<g>
	<circle r="7.2" cy="150.7" cx="396.6" class="st0"></circle>
	<path d="M364.6,180.1c-3.4,21.8,20.4,37.6,38.7,26.6c0.8-0.5,1.1-1.6,0.6-2.4c-0.4-0.6-1-0.9-1.7-0.8
		c-18.7,2.6-29.6-4.9-32.7-22.6c21.8,0.7,35.7,14.8,39.9,35.9c0.1,0.7,0.6,1.2,1.3,1.5c18.3,6.3,32.2,14.1,33.5,34.4
		c1.2,19.9-11.8,36.6-30.8,42.4c-0.8,0.2-1.3,0.8-1.5,1.6c-6,21.4-5,51.1-26.3,63.3c-3.3,1.9-3.1,2.8,0.8,2.8l58.1-1.1
		c2.3,0,3.6,1.1,3.9,3.4l0.9,7.6l-94.4,0.7c-2.3,0-2.4,0.5-0.2,1.3c16.3,6.6,25.9,17.5,37.2,33.3c20.7,28.9,41.8,57.6,63.3,86.1
		c0.5,0.6,1.1,1.1,1.9,1.4c17.4,6.7,32.8,24.9,19.9,43.2c-0.5,0.7-0.4,1.2,0.2,1.7c16.1,13.7,23,31.3,20.6,52.8
		c-0.4,3.7,0.9,4.5,3.9,2.2c6.6-5.1,13.5-11.3,20.7-18.7c27.6-28.2,55.3-56.4,83.2-84.5c0.6-0.6,0.8-1.4,0.4-2.2
		c-2.5-6-3.8-12.3-4.1-18.7c-0.8-18.4-22.3-47.8,2.2-59.8c8.6-4.2,19.3-1.1,27.8,2.5c2,0.8,4.2,0.2,5.5-1.6l13.3-19
		c0.7-0.9,0.4-1.5-0.7-1.7c-15.2-3.5-20.7-6.8-31.5-18.3c-0.5-0.6-1.3-0.9-2.1-0.9l-96.8,0c-1.3-4.2-1.2-7.3,0.3-9.3
		c0.5-0.6,1.2-0.9,1.9-0.9h89.6c0.9,0,1.3-0.4,1.2-1.3c-2.1-34.4,29-47.8,37.2-78.6c3.9-14.8,6.9-24.4,9-29
		c29.3-64.7,119.2-64.7,154.6-8.6c9.9,15.8,12.3,36.2,19.7,53.9c9.1,22,23.9,40.3,26,64.8c0.1,0.8,0.5,1.3,1.4,1.4
		c58.6,7.7,57.7,63.2,57,108.7c0,3.2,1.1,6.5,3.3,9.9c9.8,14.9,14.4,29,13.7,47c0,0.4,0.2,0.7,0.6,0.7c0.2,0,0.5-0.1,0.6-0.3
		c8.5-13,33.2-50.4,50.5-23.4c10,15.6,9.6,30.6,9.8,52.9c0.3,29.5,0.6,58.8,0.7,88c-3.8,0.7-6.9,0.6-9-0.1c-0.7-0.3-1.2-0.9-1.2-1.7
		c-0.1-35.3-0.6-70.5-1.6-105.7c-0.3-10.9-2.3-24-11.3-31.3c-1.9-1.6-4.7-1.6-6.6,0c-18.3,14.9-34.8,42.8-46.4,63.3
		c-0.3,0.6-0.1,1.4,0.5,1.7c0,0,0,0,0,0c15.9,8.7,14.6,27.9,4.6,40.5c-0.7,0.8-0.5,1.4,0.6,1.6c26.3,5.9,25.7,29.4,25.7,50.8
		c0,20.1-0.2,40.4-0.7,60.8c0,1.6-1.4,2.9-3,2.8c-0.2,0-0.3,0-0.5,0l-4.7-0.9c-1.2-0.2-1.8-1-1.6-2.2c0.7-5.3-0.5-10.7-0.3-15.4
		c0.6-21.2,0.5-42.4-0.4-63.5c-0.7-15.4-8.7-23.2-24.1-23.1c-42.3,0.1-84.5-0.1-126.8-0.5c-11-0.1-27.1,0.1-36.8,4.8
		c-39.7,19.4-54,85-98.8,90.4c-1.4,0.2-2.6,1.1-3,2.5c-3.3,11.2-6,24.2-13.7,33c-0.8,0.9-0.6,1.3,0.6,1.4
		c42.9,1.2,76.8,0.2,130.3,0.8c27.9,0.3,89.2,0.1,184-0.5c14-0.1,27.5-4.7,31.9-19.1c2.1-7,1-17.8,2.2-26.4c2.6-0.8,5.2-1.1,7.7-0.8
		c0.7,0.1,1.1,0.5,1.2,1.2c3.4,33.9-7.5,53.1-42.6,56.2c-0.9,0.1-1.3,0.6-1.3,1.4c-0.2,14.2-0.2,28.3-0.1,42.3
		c0.2,21.5-34.5,9.5-44.5,9.4c-20.1-0.2-41.8,1.1-60.4,0.9c-54.7-0.6-109.4-0.7-164.1-0.2c-0.9,0-1.4,0.4-1.5,1.3
		c-2.3,22.9-51,18.6-65.6,15.6c-8.6-1.8-17.3-6.4-16.3-16c0.1-0.7-0.4-1.3-1.1-1.4c-0.1,0-0.1,0-0.2,0c-30.4,0.2-60.8,0.2-91.1-0.2
		c-15.3-0.2-30.1,5-45.3,1.7c-5.3-1.1-9.6-1.7-13-1.6c-16.5,0.4-33.4-0.7-49.9,0.2c-4,0.2-5.9-1.8-5.6-6c0.2-2.8,2.6-5,5.4-5h44.5
		c0.8,0,1.1-0.4,0.9-1.2c-2-6.9-1-12.6,4.8-17.6c9.3-8,18.9-15.4,28.9-22.5c1.1-0.8,1-1.2-0.4-1.2l-26.9-0.1l0-9.3
		c0-0.8,0.4-1.2,1.2-1.2l35-0.7c3.2-0.1,6-2,7.3-5c5.2-12.3,13.6-38,22.8-47.5c1.7,0,3,0.3,3.7,0.8c9.4,6.5,19,12.7,28.9,18.5
		c0.6,0.4,1.1,0.3,1.5-0.4l7.3-11.6c0.4-0.7,0.3-1.2-0.5-1.5c-12.6-5.1-25.6-7.5-38.9-7.3c-1.3-1.8-1.8-3.1-1.4-3.9
		c7.1-16.2,18.2-39.9,33.4-70.9c0.4-0.9,0.2-1.4-0.8-1.5c-12.3-1.5-26.3-2.5-37.6,3.5c-42.8,22.7-54.7,88.4-109.3,93.2
		c-0.9,0.1-1.6,0.4-2.1,1.1L376.4,754c-2.6,3.1-1.9,4.5,2.1,4.4l27.1-0.8c1,0,1.8,0.7,1.9,1.7l0.7,9.9l-54.9-0.8
		c-0.8,0-1.5,0.6-1.5,1.5c0,0.1,0,0.2,0,0.4c1.3,6.4,1.6,12.8,5.6,18.3c10.3,14.5,30.5,39.8,27.3,56.5c-4.4,23.4-37.7,27-57,25.9
		c-39.6-2.1-31.1-38.7-27.5-67c1.1-8.8,0.2-19.3-2.9-31.6c-0.2-0.7-0.6-1.2-1.3-1.4c-19.4-5.8-44.1-1.7-64.5-1.9
		c-39.7-0.4-79.4-0.2-119.1,0.5c-1.1,0-1.6,0.6-1.6,1.7v39c0,0.7,0.6,1.2,1.2,1.2c0,0,0,0,0,0l26.8-0.9c0.9,0,1.2-0.5,0.8-1.3
		c-7-13.1-1.9-30.4,15.7-23.3c4.9,2,8,6.7,11.8,10.7c0.5,0.5,1.3,0.5,1.7,0.1c0.1-0.1,0.2-0.2,0.3-0.3c12.3-23.6,41.4-7.5,26,12.7
		c-1,1.3-0.7,2,1,2l79.3-0.1c1.6,0,2.9,1.2,3.1,2.8c0.6,5.7-1.5,8.5-6.3,8.6c-25.1,0.3-50.2,0.3-75.3-0.2c-13-0.2-25.4,1.8-38.4,0.7
		c-24.3-2-45.9,0.3-71.6,1.2c-8.3,0.3-12.6-3.4-12.8-11.1c-0.4-14-0.6-28-0.6-42c0-0.7-0.5-1.4-1.2-1.4
		c-17.8-2.2-35.3-6.5-42.7-24.5c-3.4-8.3-3.5-20.7-4.3-30.7c-0.1-1.2,0.9-2.8,2.5-4.1c1.3-1.1,3.9-1.1,7.8-0.1
		c1.3,27.7,2,47.8,36.2,48c65.8,0.3,131.9,0.2,198.1-0.2c1.1,0,1.6-0.6,1.3-1.7L258,696.2l-6.3-32.2l-6.9-38.2
		c-0.1-0.8-0.6-1.2-1.5-1.2c-45.6,1-91.1,1.5-136.7,1.7c-17.4,0-20.9,16-20.9,30.3c0,23.5,0,46.8,0,69.9c0,2.2-1.4,4.2-3.5,4.9
		c-4,1.4-6-0.4-6.2-4.4C75,701.7,75,676.6,76,651.4c0.7-17.5,5.5-29.3,22.5-34.2c0.6-0.2,0.9-0.8,0.8-1.3c0-0.2-0.1-0.3-0.2-0.4
		c-13.2-15.6-11.1-33.3-3.2-51c0.3-0.7,0.2-1.4-0.2-2.1c-11.4-17.8-22-33-31.9-45.4c-26.3-33-28.1,36.2-28.1,45
		c0,27.6-0.2,55.2-0.6,82.9c0,0.9-0.4,1.5-1.1,2c-1.6,1-3.8,1.3-6.7,0.9l-1.3-1c-0.7-0.5-1.1-1.2-1-2c0.7-31.3,1-62.5,0.9-93.8
		c-0.1-26.1,12.7-79.8,48.6-37c0.8,1,1.3,0.9,1.5-0.4c2.8-24.6,14.6-44.1,35.4-58.4c2-1.3,2.8-3.5,2.6-6.6
		c-3.7-51.2,23.5-82.2,73.8-85.9c22.2-1.7,60.2,1.4,103.8-1.3c1,0,1.5-0.5,1.7-1.5l3.3-17c0.2-1-0.5-2-1.5-2.2c-0.1,0-0.2,0-0.3,0
		c-15.5-0.7-26.1-8-31.8-21.9c-0.3-0.7-0.9-1.3-1.6-1.6c-24.5-10.2-22.3-45.7-11-63.5c2-3.2,3.6-6.7,4.7-10.4
		c6.5-22.4,22.4-32.9,47.8-31.5c0.3,0,0.6-0.2,0.6-0.5c0-0.2-0.1-0.4-0.2-0.5c-12.6-9.6-20-28.4-8.7-42.4
		c8.7-10.6,23.6-11.3,30.1,1.2c5.7,11.1-1.3,23.8-6.6,33.8c-0.3,0.4-0.2,1,0.2,1.3c0.4,0.3,1,0.2,1.3-0.2l0,0
		C332.2,190.6,343.7,177.4,364.6,180.1z M676.1,317.4c0,8.3,2,15.5,5.9,21.6c10,11.7,22.6,13.5,37.5,13.9c3.5,0.1,6.4,2.9,6.5,6.4
		c0.3,9.4-4.1,15.2-13.2,17.4c-1.7,0.4-2.8,2.1-2.4,3.8c0.2,0.8,0.6,1.4,1.2,1.9c12.6,9.2,24.6,7.2,35.9-1.5c0.7-0.5,0.9-1.2,0.8-2
		c-1.5-12.1-1.8-24.2-0.9-36.1l1.8-23.1l2.4-28.4c0.1-1-0.7-1.9-1.7-2c-0.1,0-0.3,0-0.4,0c-17.1,2-15.5-12.6-17.3-23.7
		c-0.1-0.6-0.6-0.9-1.2-0.8c-0.4,0.1-0.8,0.4-0.8,0.9l-2.3,17.1c-0.3,2.4-2.3,4.2-4.7,4.3c-7.9,0.4-27.9,1.3-25.8-11.7
		c0.6-3.3,1.1-6.5,1.7-9.4c0.1-0.5-0.2-1-0.7-1.1c-0.5-0.1-1,0.2-1.1,0.7l0,0l-5.5,16.4c-0.6,1.7-2.1,2.8-3.9,2.8h-11.5
		c-0.9,0-1.4,0.5-1.3,1.4L676.1,317.4z M386.7,346.7c4.7-4.5,7.5-10.4,8.4-17.7l5.9-31c0.1-0.6-0.3-1.2-0.9-1.3c-0.1,0-0.2,0-0.3,0
		c-14.9,1.7-19.4-2-31.2-9.7c-0.7-0.5-1.5-0.6-2.3-0.4c-13.5,2.9-24.4-0.8-32.6-11.3c-0.4-0.5-1.1-0.6-1.6-0.2
		c-0.2,0.2-0.4,0.4-0.4,0.7c-1.5,10.2-3.5,20.2-5.8,29.9c-0.7,2.8-2,4.8-3.9,5.8c-3.2,1.8-7.3,0.6-9.1-2.6c0-0.1-0.1-0.1-0.1-0.2
		c-14-26.8-36.8-1-24.7,15.8c3.2,4.4,8.8,6,13.8,8c0.8,0.3,1.3,0.8,1.7,1.6c5.6,10.5,0.1,27.2-5.1,37.1c-0.5,0.9-0.3,1.6,0.7,2
		c8.2,4,17,5.2,26.3,3.5c1-0.2,1.4-0.8,1-1.8c-4.1-12.9,2.4-19.4,14.9-17.9C358.4,359.2,373.8,359.3,386.7,346.7z M768.3,304.4
		l2.1,25.1c0.1,1,0.6,1.5,1.6,1.6c6.7,0.5,12.3-1.2,16.9-5.1c17.8-15.2-4.3-41.8-19.9-23.7C768.4,302.9,768.2,303.6,768.3,304.4z
		 M647.8,365.6c-2.3,6.9-1,12.9,3.8,18.2c0.7,0.8,2,0.8,2.8,0.1c0.7-0.7,0.8-1.7,0.3-2.5c-2.8-4-4-8.5-3.9-13.3
		c0-0.8-0.1-1.4-0.4-1.9c-0.4-0.7-1-1.1-1.8-1.1C648.3,365,648,365.3,647.8,365.6z M340,369c0.1-0.7-0.7-1.3-1.7-1.4
		c-1-0.1-1.8,0.4-1.9,1c0,0,0,0,0,0c-0.1,0.7,0.7,1.3,1.7,1.4C339,370.1,339.9,369.7,340,369z M124.9,448.7c29.2-9.3,56.4-1,74.4,23
		c0.7,1,2.1,1.2,3.1,0.4c0.3-0.2,0.6-0.6,0.7-1c16.3-40.3,28.7-75.5,63.7-97.5c0.5-0.3,0.5-0.5-0.1-0.5c-24.6-0.6-49.1-0.5-73.6,0.2
		c-49.2,1.4-69.9,24.5-69.5,74.3C123.5,448.7,124,449,124.9,448.7z M856.9,376c-5.6,11.5-13.7,20.7-24.3,27.9
		c-0.5,0.3-0.6,0.9-0.3,1.4c0.1,0.2,0.3,0.3,0.5,0.4c24.5,9.5,35.3,27.7,32.2,54.6c-0.1,0.9,0.3,1.3,1.2,1.1
		c13.8-2.9,26.6-0.7,38.5,6.7c0.8,0.5,1.8,0.3,2.3-0.5c0.2-0.3,0.3-0.6,0.3-1c-1.6-36.2,2.6-88.4-49.4-91.1
		C857.4,375.4,857.1,375.6,856.9,376z M696.1,377.3c-25.6,1.3-37,20.4-49.6,39.4c-0.3,0.4-0.2,1,0.2,1.3c0.1,0.1,0.3,0.2,0.5,0.2
		c8,0.2,18.3-1.3,25.1,2.2c14,7.4,12.3,19.1,11.3,33.4c-0.1,1.1,0.4,1.5,1.5,1.4c7.9-1.2,15.2,0.4,21.7,4.8c0.7,0.5,1.6,0.6,2.4,0.5
		c25.4-5.6,36.2,4.2,52.3,21c0.6,0.6,1.3,0.9,2.1,0.8c6.7-0.3,49.9,5,37.7,20.3l-10-3.8c-4-3-8.4-4.6-13-4.8l-9.4-1.7
		c-0.9-0.2-1.2,0.2-1.1,1.1c0.4,2.8,1.3,4.9,2.7,6.2c-0.2,2.3,0.3,3.6,1.5,3.9c12.7,3.4,24.1,8.4,34,14.9c0.8,0.5,1.4,0.4,1.8-0.5
		l1.8-3.4c1.2-2.8,2.5-4.3,3.9-4.6c-4.1-26.2-10.8-52.9-20.2-80.1c-1.8-5.3-3.8-9.8-6-13.5c-0.4-0.6-0.9-1-1.5-1.1
		c-7.8-1.7-14.8-4.9-21-9.8c-0.5-0.4-1.2-0.5-1.8-0.2c-3.8,1.9-7.5,3.8-11.2,5.7c-19.3,10.3-46.8,10.7-61-9
		c-2.5-3.5-7.5-15.5-2.8-18.2c0.9-0.5,2-0.7,3.2-0.6c3.3,6.9,6.1,19.8,16,19.4c15.2,9.1,33.9,4.5,47.5-5.4c0.7-0.5,1-1.2,0.6-2.1
		l-1.6-3.9c-0.3-0.8-1.2-1.2-2-0.9c-0.1,0.1-0.3,0.1-0.4,0.2c-16.5,12.7-46.8,13.9-50.9-12.1c-0.1-0.8-0.8-1.4-1.6-1.5
		C698,376.7,697.1,376.8,696.1,377.3z M272.3,383.2c-25.6,13.7-36.2,38.3-47.3,63.4c-12.2,27.6-23.2,56.2-33.1,85.8
		c-0.5,1.6,0,2.2,1.7,1.9c2.8-0.6,6.1-1,9.7-1.5c1.6-0.2,2.7-0.7,3.2-1.6c0.6-0.8,1.1-2,1.7-3.6c8.9-26.1,29.1-27.2,52.3-23.3
		c12.2,2.1,24.6,2.5,36.9,1.3c15.6-1.5,29.5-11.9,44.8-13.7c16.6-2,35.6,1.7,46.1,16.1c0.8,1.2,1.3,1,1.3-0.4
		c0-4.4-3.7-22.5,4.4-23.2c0.8-0.1,1.5,0.2,2.1,0.8c4.8,4.7,4.2,22.4,4.5,29.1c0,0.8,0.7,1.4,1.4,1.3c0.3,0,0.6-0.1,0.8-0.3
		c12-9.3,25.2-15.7,39.8-19.3c0.9-0.2,1.1-0.8,0.5-1.5c-22.9-30.6-45.5-61.3-67.7-92.2c-4.2-5.8-10.6-11-19.2-15.5
		c-8-4.1-13.2-6-22.3-2.8c-15.6,5.7-30.4,4-44.6-5.1c-0.7-0.5-1.5-0.7-2.3-0.6C281.6,378.9,276.7,380.5,272.3,383.2z M823.1,493.9
		c8.3-10.7,18-19.8,29.2-27.4c0.7-0.5,1.1-1.1,1.2-1.9c4.7-25.3-4.5-48.1-32.3-50.6c-5.9-0.5-13.5,1.5-19.8,2.5
		c-0.9,0.1-1.3,0.7-0.9,1.6c8.6,24.8,15.8,50,21.4,75.6c0.1,0.4,0.5,0.6,0.8,0.5C822.8,494.1,823,494,823.1,493.9z M619.2,420.6
		c-22.6-8.5-16.2,21.6-11.8,30.8c0.5,1,1.2,1.2,2.1,0.5c19.2-15,38.8-2.1,42.4,19.1c0.1,0.8,0.6,1.2,1.4,1.3l16,1.1
		c0.6,0,1.1-0.4,1.2-1c1.6-9.7,8.5-34.9-1.7-43.4c-0.7-0.6-1.4-0.8-2.3-0.8C650.1,428.8,634.4,426.3,619.2,420.6z M197.4,483.3
		c-19.1-21.6-40.7-35.4-70.5-23.9c-20.8,8-33.9,23.4-39.1,46.2c-2.5,10.8-1.6,24.3,4.1,33.3c12.9,20,31.7,45.3,56.3,75.9
		c0.5,0.6,1.1,0.9,1.9,0.9c33.5-0.9,78.3,9.5,87.6-36.5c0.8-4,1.6-8,2.5-12.1c0.1-0.8-0.2-1.1-0.9-0.9c-19.3,4.5-30.7-2.7-34.4-21.7
		c-0.2-0.9-0.7-1.3-1.7-1.2c-11.7,1.9-27.5,4.7-20.9-14.2c5.1-14.6,10.3-29.1,15.5-43.6C198.1,484.6,197.9,483.8,197.4,483.3z
		 M642,474.1c-3-35.9-48.5-14.2-22.5,18c0.6,0.7,1.2,0.7,1.8,0.1c5.8-6.2,12.3-11.5,19.6-15.9C641.7,475.9,642.1,475,642,474.1z
		 M681,472.4c-0.1,0.6,0.3,1.2,1,1.3c0.2,0,0.5,0,0.7-0.1l12.4-6.8c0.9-0.5,0.9-0.9-0.1-1.3c-4-1.3-8-1.4-11.9-0.2
		c-0.7,0.2-1.2,0.8-1.3,1.6L681,472.4z M760.3,555.2c-6.9-2.4-13.9-7-21-13.7c-22.8-21.5-57.4-64.1-86.8-57.7
		c-24.2,5.3-42.7,43.9-52.4,65.8c-0.3,0.7-0.1,1.3,0.6,1.6c10.5,4.6,8,17-1.9,19.8c-0.8,0.2-1.7,0.2-2.5,0l-4.1-1.2
		c-0.9-0.3-1.6,0-2,0.9l-57.6,121.6c-0.3,0.7,0,1.5,0.6,1.8c0.2,0.1,0.4,0.1,0.5,0.1c12.4,0.4,23.5,5.3,35.2,9.2
		c0.9,0.3,1.4,0,1.6-0.9c2.7-11.8,18.4-10.1,19,0.8c0.1,2.6-1.1,5.3-1.8,8c-0.2,0.9,0.1,1.5,0.9,1.9c12.4,6.2,24.3,13.4,35.5,21.5
		c4.5,3.3,7,11.2-1,11.5c-0.8,0-1.6-0.2-2.3-0.7c-15.9-11.5-32.9-21.4-50.8-29.6c-1-0.5-2.3-0.1-2.9,0.9l-12.4,19.7
		c-0.5,0.7-0.3,1.3,0.5,1.6c13.8,5.5,72.3,27.8,79.1,5.5c16.3-53.2,32.9-106.3,49.8-159.4c0.7-2.3,1.9-4.3,3.4-6
		c0.6-0.6,1.3-0.9,2.1-0.8c5.6,0.7,5.7,4.6,4.3,9.1c-2.9,9.3-5.8,18.6-8.8,27.8c-0.1,0.4,0.1,0.9,0.5,1c0.1,0,0.2,0,0.2,0
		c23.4,1.1,46.9,1.6,70.4,1.4c14.1-0.1,26.4,1.1,27.3-15.2c0.5-8.9-1.5-22.1,0.6-32.3c2.9-13.4,10.1-26.3,16.3-38.6
		c0.4-0.9,0.3-1.6-0.5-2.1c-7.6-5.7-15.9-10.1-24.8-13.4c-1.2-0.4-1.6-0.1-1.3,1.1c3,14,4.8,25.5,5.4,34.3c0.1,1.2-0.4,2.1-1.3,2.7
		c-5.3,0.5-8.4-2.4-9.5-8.7c-3.1-19-5.6-42.4-16-57.9c-15.7-23.4-40.3-19.9-62-5.9c-0.5,0.3-0.6,1-0.3,1.5c0.1,0.1,0.1,0.2,0.2,0.2
		c24.4,20.2,45.5,43.1,69.9,63.3C764.4,549.1,762.9,551.7,760.3,555.2z M868.4,471.6c-33.3,8.9-60.7,61.8-71.4,92.6
		c-6,18.4-0.5,48.7,22.8,50.1c21.6,1.3,43.2,1.6,64.9,1c0.8,0,1.4-0.4,1.8-1c17.4-29.4,28.2-49.4,32.3-59.8
		c11.1-28.5,5.5-63.3-22.2-78.7C888.1,470.9,878.7,469.5,868.4,471.6z M532.5,614.5c1.1,1.1,2.6,1.8,4.2,1.8h17.9
		c1.9,0,3.2-0.9,4-2.6c16.6-38.1,34.7-75.3,54.2-111.6c0.3-0.6,0.2-1.1-0.5-1.5c-0.6-0.4-1.4-0.3-1.9,0.2
		c-25.7,26.2-51.4,52.5-77.2,78.9C522.5,590.8,521.3,603.1,532.5,614.5z M378.2,523.2c2-3.1,2.6-6.1,1.7-8.9
		c-6.8-10.8-21-12.8-32.6-12.4c-16.5,0.6-30.2,11.5-46.7,13.8c-20.2,2.9-37.3-1.4-56.3-3.6c-28.7-3.3-42.3,49.4-9.6,44
		c7.9-1.3,12.8-3,14.7-5c12.6-14,28-20.1,46.3-18.5c10,0.9,18.1-1.3,27.5-2.7C341.6,527.3,363.8,538.6,378.2,523.2z M377.2,602.1
		c2.2,2.3,5.6,3.1,10.1,2.5c16.1-4.3,19.7-19.3,21-33.4c2.2-24.2,34.2-29.5,53.5-35.9c27.6-9.1-9.4-49.6-33.1-17
		c-9,12.4-19,18.1-33.8,28C381.4,555.6,363.6,585.4,377.2,602.1z M388.7,524.1c-6.8,14.7-22,17.8-37,17.1c-1,0-1.5,0.4-1.4,1.4
		l0.7,13.7c0,1.1,0.6,1.6,1.8,1.5l18.8-2.6c0.3,0,0.7-0.2,0.9-0.5l16.8-17.6c0.6-0.6,1-1.3,1.1-2.2c0.7-4.1,0.6-8.3-0.2-12.4
		c-0.2-0.8-0.5-0.9-1-0.2C388.6,522.9,388.5,523.5,388.7,524.1z M315.2,543.2c7.1,8.8,11.9,17.4,25,14.1c0.7-0.2,1-0.6,0.9-1.2
		l-1.3-15c-0.1-1-1-1.8-2-1.7c0,0,0,0,0,0l-21.9,1.8c-0.7,0.1-1.2,0.7-1.1,1.3C314.9,542.8,315,543,315.2,543.2z M322.4,569.1
		c-11.3-20.3-32.4-33.2-55-19.9c-21.9,12.8-18.5,36.5-14.9,57.6c8.2,47.7,17.6,96,28.3,144.8c0.2,0.9,0.8,1.3,1.7,1.1l80.6-16.9
		c1.2-0.2,1.6-0.9,1.2-2C351,686,339.2,638.1,329,589.9C326.9,580.3,324.7,573.3,322.4,569.1z M418,570.5c-2,27.4-12.3,48-43.5,42.1
		c-0.8-0.2-1.5,0.1-2.1,0.8c-6.5,8.2-13.4,16.2-20.5,23.9c-0.7,0.8-0.8,2.5-0.2,5.2c6.6,31,15,61.4,25.3,91.3c0.3,0.8,1.2,1.2,2,1
		c0.2-0.1,0.5-0.2,0.6-0.4c30.8-34.9,60.9-70.8,90.2-107.6c14.8-18.6,21.8-31.2,16.6-53.7c-2.7-11.8-9-20.8-18.8-27
		c-0.7-0.4-1.5-0.5-2.2-0.3C448.5,550,418.9,556.9,418,570.5z M508.6,746.4c11.6-4,17.8-2.6,29.4-2.2c0.7,0,1.2-0.3,1.6-0.9l4.5-7.8
		c0.4-0.7,0.2-1.7-0.5-2.1l-22.1-14.5c-0.6-0.4-1.3-0.2-1.7,0.4c0,0.1-0.1,0.1-0.1,0.2l-11.9,26.2
		C507.4,746.4,507.7,746.7,508.6,746.4z M546.9,750.1c-2.6,11.1,21.9,8,27.1,7.3c1.3-0.2,1.3-0.5,0.1-1l-23.3-8.4
		c-1.5-0.6-3.2,0.2-3.8,1.8C546.9,749.9,546.9,750,546.9,750.1z M343.6,782.3l-4.6-29.1c-0.1-0.7-0.8-1.2-1.5-1.1c0,0,0,0-0.1,0
		l-31.5,7.2c-0.9,0.2-1.5,1.1-1.3,2c0,0.1,0,0.1,0,0.2c3.3,9.9,5.4,20.1,6.3,30.5c0.1,1.1,0.5,1.3,1.4,0.6
		c8.6-6.8,18.5-9.6,29.5-8.5C343.2,784.2,343.8,783.6,343.6,782.3z M499.6,763.9L484.9,777c-11.4,7.7-21.9,16.5-31.6,26.5
		c1.6,4.4,4,7.4,7,9c18,3.6,35,1.4,51.1-6.6c14.7-7.3,28.1-17,30.5-33.3c1.1-8-1-13.6-6.4-16.9C524.8,749,508.7,756.5,499.6,763.9z
		 M590.5,811.5c10.2,0.3,16.8,0,19.9-0.9c18.8-5.3,37.4-5.6,56-1c5.4,1.3,10.3,2,14.7,1.9c50.9-1.1,90.8,0.6,136-0.4
		c0.7,0,1.2-0.6,1.2-1.2c0-0.2-0.1-0.5-0.2-0.7c-8.9-13.1-1.2-32.1,16.7-22.2c1.6,0.9,4.4,3.8,8.3,8.7c0.5,0.6,1.3,0.7,1.9,0.2
		c0,0,0,0,0.1,0c3.1-2.8,6.1-6.4,9-8.3c16.2-10.8,26.8,8.3,16.7,21.7c-0.5,0.6-0.3,1.5,0.3,1.9c0.2,0.2,0.6,0.3,0.9,0.3l40.3-0.7
		c0.8,0,1.2-0.4,1.2-1.2v-36.2c0-3-1.5-4.5-4.5-4.5l-355.5-0.9c-0.9,0-1.6,0.7-1.6,1.6c0,0,0,0,0,0c0.4,18.3-11.9,32.2-27.3,40.5
		c-0.2,0.1-0.3,0.3-0.2,0.5c0.1,0.1,0.2,0.2,0.3,0.2C548.1,810.7,570,810.9,590.5,811.5z M313.7,856.1c14.3,10.3,73,6.7,58.6-24.9
		c-4.8-10.7-11-20.7-18.3-29.9c-11.6-14.6-40.8-4.6-44.9,12.2C306.8,823,303.9,849.1,313.7,856.1z M670.9,824.2
		c0-4.2-13.8-7.6-30.9-7.6c0,0,0,0,0,0c-17,0-30.8,3.5-30.8,7.7v0c0,4.2,13.8,7.6,30.9,7.6C657.1,831.9,671,828.4,670.9,824.2
		L670.9,824.2z" class="st0"></path>
	<path d="M231.8,193.7c0,12.8-10.4,23.3-23.3,23.3c-12.8,0-23.3-10.4-23.3-23.3l0,0c0-12.8,10.4-23.3,23.3-23.3
		c0,0,0,0,0,0C221.4,170.4,231.8,180.9,231.8,193.7z M224.6,193.6c0-8.9-7.2-16.1-16.1-16.1l0,0c-8.9,0-16.1,7.2-16.1,16.1l0,0
		c0,8.9,7.2,16.1,16.1,16.1l0,0C217.4,209.7,224.6,202.5,224.6,193.6L224.6,193.6z" class="st1"></path>
	<circle r="16.1" cy="193.6" cx="208.5" class="st2"></circle>
	<path d="M364.6,180.1l4.8,0.8c3.1,17.6,14,25.2,32.7,22.6c1-0.1,1.8,0.5,2,1.5c0.1,0.7-0.2,1.4-0.8,1.7
		C385,217.7,361.3,201.9,364.6,180.1z" class="st3"></path>
	
		<ellipse ry="15.3" rx="10.3" cy="209.2" cx="607.2" class="st0" transform="matrix(0.9999 -1.047176e-02 1.047176e-02 0.9999 -2.1579 6.3698)"></ellipse>
	
		<ellipse ry="10.2" rx="15.2" cy="260.4" cx="139.6" class="st3" transform="matrix(3.489950e-02 -0.9994 0.9994 3.489950e-02 -125.5417 390.8737)"></ellipse>
	<circle r="7.1" cy="252.9" cx="476.7" class="st0"></circle>
	<path d="M897.4,288.5c10.2-5,35.2-6.2,27.3,13.1c-4.9,11.9-37.2,17.7-46.1,7.8c-9.7-10.8-17.2-27.1-10.3-41.3
		c0.3-0.7,0.9-1.2,1.6-1.6c15.4-8.2,21.6,8.8,25.7,21.2C895.9,288.6,896.5,288.9,897.4,288.5z" class="st0"></path>
	<path d="M749.2,319.7c-16.8-1.7-19,22.7-1.8,23.1c-0.9,11.9-0.6,24,0.9,36.1c0.1,0.8-0.2,1.5-0.8,2
		c-11.4,8.8-23.3,10.8-35.9,1.5c-1.4-1-1.8-3-0.7-4.5c0.5-0.6,1.1-1.1,1.9-1.2c9.2-2.2,13.6-8,13.2-17.4c-0.1-3.5-3-6.3-6.5-6.4
		c-14.9-0.4-27.5-2.2-37.5-13.9c8.2-12.4,6.2-19.6-5.9-21.6l-0.8-31.4c0-0.9,0.4-1.4,1.3-1.4h11.5c1.7,0,3.3-1.1,3.9-2.8l5.5-16.4
		c0.1-0.5,0.6-0.8,1.1-0.7c0.5,0.1,0.8,0.6,0.7,1.1c-0.6,3-1.2,6.1-1.7,9.4c-2.1,13,17.9,12,25.8,11.7c2.4-0.1,4.3-1.9,4.7-4.3
		l2.3-17.1c0.1-0.6,0.6-0.9,1.2-0.9c0.4,0.1,0.8,0.4,0.9,0.8c1.8,11.1,0.2,25.7,17.3,23.7c1-0.1,1.9,0.6,2.1,1.6c0,0.1,0,0.3,0,0.4
		L749.2,319.7z M686.5,315.9c3.4,0,6.1-4.6,6.2-10.3c0,0,0,0,0,0c0-5.7-2.7-10.4-6-10.4c-3.4,0-6.1,4.6-6.2,10.3c0,0,0,0,0,0
		C680.4,311.3,683.1,315.9,686.5,315.9z M736.6,317.3c3.5,0,6.4-4.8,6.4-10.7c0,0,0,0,0,0c0-5.9-2.8-10.7-6.4-10.8
		c-3.5,0-6.4,4.8-6.4,10.7c0,0,0,0,0,0C730.2,312.5,733.1,317.3,736.6,317.3z M700.8,324.9c1.5,0.8,3.4,0.1,4.2-1.6
		c0.8-1.6,0.3-3.6-1.2-4.3c0,0,0,0,0,0c-1.5-0.8-3.4-0.1-4.2,1.6C698.8,322.2,699.3,324.1,700.8,324.9
		C700.8,324.9,700.8,324.9,700.8,324.9z M709.8,339.5c1.7-1.8,1.4-4.8-0.7-6.7c0,0,0,0,0,0c-2.1-2-5.1-2.1-6.8-0.4
		c-1.7,1.8-1.4,4.8,0.7,6.7C705.1,341.1,708.1,341.2,709.8,339.5z" class="st1"></path>
	<path d="M69.8,268.8l11.7,6.2c2.4,1.3,3.2,4.2,2,6.5l-0.3,0.5c-1.3,2.4-4.2,3.2-6.5,2L65,277.9c-2.4-1.3-3.2-4.2-2-6.5
		l0.3-0.5C64.6,268.5,67.5,267.6,69.8,268.8z" class="st3"></path>
	<path d="M54.2,270.3c2.2,1.7,2.8,3.9,1.9,6.7c-0.2,0.7-0.8,1.3-1.5,1.5c-7.9,2.4-14.1,6.9-18.8,13.6
		c-0.6,0.8-1.6,1.2-2.6,1c-2.9-0.6-4.7-2.3-5.5-5.2c-0.2-0.8-0.1-1.7,0.4-2.3c5.7-7.9,13.3-13.2,22.7-15.9
		C52,269.3,53.2,269.6,54.2,270.3z" class="st3"></path>
	
		<ellipse ry="14.5" rx="4.2" cy="281.2" cx="204.9" class="st1" transform="matrix(0.6239 -0.7815 0.7815 0.6239 -142.6907 265.8477)"></ellipse>
	<path d="M395.1,329c-2.6-1.9-5-1.2-7.3,2.1c-3.1,4.5-3.5,9.7-1,15.6c-12.9,12.6-28.3,12.5-45.3,10.4
		c-12.4-1.5-19,5-14.9,17.9c0.3,1,0,1.6-1,1.8c-9.3,1.7-18,0.6-26.3-3.5c-0.9-0.5-1.1-1.1-0.7-2c5.2-9.9,10.7-26.6,5.1-37.1
		c-0.4-0.7-1-1.3-1.7-1.6c-5-2-10.6-3.6-13.8-8c-12-16.7,10.7-42.5,24.7-15.8c1.7,3.3,5.7,4.5,9,2.8c0.1,0,0.1-0.1,0.2-0.1
		c1.9-1.1,3.2-3,3.9-5.8c2.4-9.8,4.3-19.8,5.8-29.9c0.1-0.6,0.6-1,1.3-1c0.3,0,0.6,0.2,0.7,0.4c8.3,10.4,19.1,14.2,32.6,11.3
		c0.8-0.2,1.6,0,2.3,0.4c11.8,7.7,16.3,11.3,31.2,9.7c0.6-0.1,1.2,0.4,1.2,1c0,0.1,0,0.2,0,0.3L395.1,329z M347.5,317.6
		c3.1,1.3,7.4-2,9.6-7.3c0,0,0,0,0,0c2.2-5.3,1.5-10.6-1.6-11.9c0,0,0,0,0,0c-3.1-1.3-7.4,2-9.6,7.3c0,0,0,0,0,0
		C343.7,311,344.4,316.3,347.5,317.6C347.5,317.6,347.5,317.6,347.5,317.6z M334.6,341.6c5.7,1.2,11.4-3.1,12.8-9.6
		c1.4-6.5-2.1-12.8-7.8-14c-5.7-1.2-11.4,3.1-12.8,9.6C325.4,334.1,328.9,340.4,334.6,341.6z M387.7,324.6c-0.4-1.4-2-2.1-3.5-1.7
		c-1.6,0.4-2.5,1.9-2.1,3.3c0,0,0,0,0,0c0.4,1.4,2,2.1,3.5,1.7C387.1,327.5,388.1,326,387.7,324.6
		C387.7,324.6,387.7,324.6,387.7,324.6z M373.4,340.8c0.8-2.3-1.3-5.1-4.7-6.3c-3.4-1.2-6.8-0.2-7.6,2.1c0,0,0,0,0,0
		c-0.8,2.3,1.3,5.1,4.7,6.3C369.2,344,372.6,343.1,373.4,340.8C373.4,340.8,373.4,340.8,373.4,340.8z" class="st1"></path>
	<ellipse ry="10.3" rx="5.5" cy="297.9" cx="90.8" class="st3" transform="matrix(0.933 -0.36 0.36 0.933 -101.1752 52.6494)"></ellipse>
	<path d="M552,301.1c5.5-7.8,16-16,25.8-10.1c17.8,10.7-15.1,43.8-33.7,36.9c-10.1-3.7-30.4-16.7-24.3-30.1
		c6.7-14.7,23.1-5,29.4,3.4c0.6,0.8,1.6,0.9,2.4,0.3C551.7,301.3,551.8,301.2,552,301.1z" class="st0"></path>
	
		<ellipse ry="6.1" rx="10.4" cy="305.6" cx="686.6" class="st0" transform="matrix(5.236017e-03 -1 1 5.236017e-03 377.3809 990.5255)"></ellipse>
	
		<ellipse ry="6.4" rx="10.7" cy="306.6" cx="736.6" class="st0" transform="matrix(3.490598e-03 -1 1 3.490598e-03 427.4724 1042.1791)"></ellipse>
	<path d="M768.9,302.3c15.6-18,37.7,8.5,19.9,23.7c-4.6,3.9-10.2,5.6-16.9,5.1c-1-0.1-1.5-0.6-1.6-1.6l-2.1-25.1
		C768.2,303.6,768.4,302.9,768.9,302.3z" class="st1"></path>
	<path d="M28.3,324.5c0,0.7-0.6,1.2-1.3,1.1c0,0,0,0,0,0l-1.9-0.1c-4.1-0.3-7-5.6-6.6-11.8c0,0,0,0,0,0l0.4-5.8
		c0.4-6.3,4.1-11.1,8.1-10.9c0,0,0,0,0,0l1.8,0.1c0.7,0,1.2,0.6,1.1,1.3c0,0,0,0,0,0L28.3,324.5z" class="st3"></path>
	<ellipse ry="6" rx="10.4" cy="308" cx="351.5" class="st0" transform="matrix(0.3811 -0.9245 0.9245 0.3811 -67.2181 515.5832)"></ellipse>
	<path d="M452.3,301l0.1,0.1c1.4,1.4,1.5,3.7,0.1,5.2l-15.7,16.1c-1.4,1.4-3.7,1.5-5.2,0.1l-0.1-0.1
		c-1.4-1.4-1.5-3.7-0.1-5.2l15.7-16.1C448.5,299.6,450.8,299.6,452.3,301z" class="st1"></path>
	<path d="M149.4,317.7c3.8-11.8,19.5-21.8,28.2-7.9c7.6,12-0.8,30.1-10.1,38.5c-9.5,8.6-31.1,5.6-39.9-2.4
		c-10.7-9.7-6.2-24.7,8-27.7c4-0.9,7.8,0.3,12.1,0.6C148.6,318.9,149.2,318.5,149.4,317.7z M152.1,330.2l-15.7-2
		c-2.5-0.3-4.8,1.4-5.1,4c-0.1,0.7,0,1.3,0.2,2c1.2,3.8,3.6,6.3,7.3,7.6c17.5,6,28,0.6,31.4-16.2c0.8-4,2.5-7-0.9-10.7
		c-1.7-1.8-4.5-2-6.4-0.3c-0.2,0.1-0.3,0.3-0.4,0.5c-3.1,3.7-5.2,7.9-6.3,12.6C155.6,329.3,153.9,330.5,152.1,330.2z" class="st0"></path>
	<circle r="7.1" cy="314.8" cx="219.6" class="st0"></circle>
	<path d="M152.1,330.2c1.8,0.2,3.5-0.9,4-2.7c1.2-4.7,3.3-8.9,6.3-12.6c1.6-1.9,4.4-2.2,6.4-0.6
		c0.2,0.1,0.3,0.3,0.5,0.4c3.4,3.7,1.7,6.6,0.9,10.7c-3.4,16.9-13.9,22.3-31.4,16.2c-3.7-1.3-6.1-3.8-7.3-7.6c-0.7-2.4,0.6-5,3-5.8
		c0.6-0.2,1.3-0.3,1.9-0.2L152.1,330.2z" class="st3"></path>
	
		<ellipse ry="10.5" rx="12" cy="329.8" cx="337.1" class="st4" transform="matrix(0.2079 -0.9781 0.9781 0.2079 -55.6102 590.9266)"></ellipse>
	<path d="M681.9,339c-3.9-6.1-5.8-13.3-5.9-21.6C688.2,319.4,690.1,326.6,681.9,339z" class="st4"></path>
	<ellipse ry="3" rx="3.3" cy="321.9" cx="702.3" class="st4" transform="matrix(0.4555 -0.8902 0.8902 0.4555 95.8094 800.4978)"></ellipse>
	<path d="M749.2,319.7l-1.8,23.1C730.2,342.4,732.5,318.1,749.2,319.7z" class="st4"></path>
	
		<ellipse ry="2.6" rx="2.9" cy="325.4" cx="384.9" class="st4" transform="matrix(0.9627 -0.2706 0.2706 0.9627 -73.704 116.2857)"></ellipse>
	<path d="M395.1,329c-0.9,7.3-3.7,13.3-8.4,17.7c-2.4-5.9-2.1-11.1,1-15.6C390.1,327.8,392.5,327.1,395.1,329z" class="st4"></path>
	<path d="M27.7,332.2l0.7-0.6c1.9-1.6,4.8-1.4,6.4,0.5l9.5,11.3c1.6,1.9,1.4,4.8-0.5,6.4l-0.7,0.6
		c-1.9,1.6-4.8,1.4-6.4-0.5l-9.5-11.3C25.6,336.6,25.8,333.8,27.7,332.2z" class="st3"></path>
	<ellipse ry="5.1" rx="4.4" cy="335.9" cx="706" class="st4" transform="matrix(0.6884 -0.7254 0.7254 0.6884 -23.6346 616.8317)"></ellipse>
	
		<ellipse ry="6.5" rx="4.4" cy="338.7" cx="367.2" class="st0" transform="matrix(0.3223 -0.9466 0.9466 0.3223 -71.7172 577.1322)"></ellipse>
	<path d="M103.4,376.7c4.4,5.3,3.7,13.1-1.6,17.5c0,0,0,0,0,0l-0.8,0.7c-5.3,4.4-13.1,3.7-17.5-1.6c0,0,0,0,0,0
		l-18.3-22.1c-4.4-5.3-3.7-13.1,1.6-17.5c0,0,0,0,0,0l0.8-0.7c5.3-4.4,13.1-3.7,17.5,1.6c0,0,0,0,0,0L103.4,376.7z M96.7,388.6
		c1.6-1.3-2.4-8.6-8.8-16.3c0,0,0,0,0,0c-6.4-7.7-12.9-12.9-14.5-11.6c0,0,0,0,0,0c-1.6,1.3,2.4,8.6,8.8,16.3c0,0,0,0,0,0
		C88.7,384.8,95.1,390,96.7,388.6C96.7,388.6,96.7,388.6,96.7,388.6z" class="st0"></path>
	<path d="M1014.8,375.8c0,12.4-10.1,22.5-22.5,22.5l0,0c-12.4,0-22.5-10.1-22.5-22.5c0-12.4,10.1-22.5,22.5-22.5
		C1004.7,353.3,1014.8,363.4,1014.8,375.8L1014.8,375.8z M1007.6,375.9c0-8.3-6.7-15-15-15l0,0c-8.3,0-15,6.7-15,15c0,0,0,0,0,0
		c0,8.3,6.7,15,15,15l0,0C1000.8,390.9,1007.6,384.2,1007.6,375.9C1007.6,375.9,1007.6,375.9,1007.6,375.9z" class="st1"></path>
	
		<ellipse ry="10" rx="14.7" cy="368.5" cx="936.7" class="st3" transform="matrix(0.2656 -0.9641 0.9641 0.2656 332.6865 1173.7231)"></ellipse>
	
		<ellipse ry="18.1" rx="3.7" cy="374.7" cx="85.1" class="st3" transform="matrix(0.7683 -0.6401 0.6401 0.7683 -220.1295 141.298)"></ellipse>
	<path d="M470.4,365.6c1.8,9.9-11.3,7.7-17,7c0.4-2.4,0.4-4.7-0.1-6.9c-0.6-2.5,0.4-4,2.9-4.5
		C460.1,360.6,471.3,359,470.4,365.6z" class="st0"></path>
	<path d="M512.9,372c-5.7,1.1-11,0.9-15.8-0.7c-2.7-12.5,5.5-10.2,12.9-10.5c0.8,0,1.6,0.3,2.1,1
		C513.9,364,514.2,367.4,512.9,372z" class="st0"></path>
	<circle r="15" cy="375.9" cx="992.5" class="st2"></circle>
	<path d="M491.2,372.4c-4.7,1-9.4,0.9-14.2-0.2c-0.8-0.2-1.3-0.7-1.4-1.5l-1-6.8c3.6-3,8.2-3.6,13.9-1.7
		c0.8,0.3,1.4,0.8,1.7,1.6C491.2,366.3,491.6,369.2,491.2,372.4z" class="st0"></path>
	<path d="M474.6,363.9l1,6.8c0.1,0.8,0.6,1.3,1.4,1.5c4.8,1.1,9.5,1.2,14.2,0.2c2.3,1,4.3,0.6,5.9-1.1
		c4.8,1.6,10.1,1.8,15.8,0.7l6.6,0.3l96.8,0c0.8,0,1.5,0.3,2.1,0.9c10.8,11.5,16.2,14.7,31.5,18.3c1.1,0.2,1.3,0.8,0.7,1.7l-13.3,19
		c-1.2,1.7-3.5,2.4-5.5,1.6c-8.5-3.7-19.2-6.8-27.8-2.5c-24.5,12-3,41.5-2.2,59.8c0.3,6.5,1.6,12.7,4.1,18.7
		c0.3,0.8,0.2,1.6-0.4,2.2c-27.9,28.1-55.6,56.3-83.2,84.5c-7.2,7.4-14.1,13.7-20.7,18.7c-3,2.3-4.3,1.6-3.9-2.2
		c2.4-21.5-4.5-39.1-20.6-52.8c-0.6-0.5-0.7-1.1-0.2-1.7c13-18.3-2.5-36.6-19.9-43.2c-0.7-0.3-1.4-0.8-1.9-1.4
		c-21.4-28.5-42.5-57.1-63.3-86.1c-11.4-15.8-20.9-26.8-37.2-33.3c-2.1-0.9-2-1.3,0.2-1.3l94.4-0.7c1.2,0.7,2.6,0.8,4.2,0.2
		c5.7,0.6,18.8,2.8,17-7C472.8,366.1,474.2,365.6,474.6,363.9z M554,454.8c5.9,5.3,15.9,3.8,22.5-3.5c6.6-7.2,7.2-17.4,1.3-22.8
		c-5.9-5.3-15.9-3.8-22.5,3.5C548.8,439.3,548.2,449.5,554,454.8z M522.8,479.6c-10.2,14.9,20,38.9,31.8,34.9
		c9.7-3.3,26-14.7,27.5-24.9c1.6-10.9-8.1-16.8-17.6-12.6c-4.6,2-8.4,5.3-11.6,9.8c-0.4,0.6-1.2,0.7-1.8,0.3
		c-0.1-0.1-0.1-0.1-0.2-0.2C543.7,478.8,530.5,468.3,522.8,479.6z" class="st3"></path>
	<path d="M647.8,365.6c0.1-0.4,0.5-0.6,0.9-0.5c0.8,0.1,1.4,0.5,1.8,1.1c0.3,0.5,0.4,1.1,0.4,1.9
		c-0.2,4.9,1.1,9.3,3.9,13.3c0.6,0.9,0.4,2.1-0.5,2.7c-0.8,0.5-1.9,0.4-2.5-0.3C646.8,378.6,645.6,372.5,647.8,365.6z" class="st5"></path>
	
		<ellipse ry="1.8" rx="1.2" cy="368.8" cx="338.2" class="st1" transform="matrix(9.931975e-02 -0.9951 0.9951 9.931975e-02 -62.4249 668.6777)"></ellipse>
	<path d="M199.2,471.8c-18-24-45.2-32.3-74.4-23c-0.9,0.3-1.3,0-1.4-1c-0.4-49.8,20.3-72.8,69.5-74.3
		c24.5-0.7,49-0.8,73.6-0.2c0.6,0,0.6,0.2,0.1,0.5c-35,22-47.4,57.2-63.7,97.5c-0.5,1.1-1.8,1.7-2.9,1.2
		C199.8,472.4,199.5,472.1,199.2,471.8z M209.9,406c0-6.5-5.3-11.8-11.8-11.8h0c-6.5,0-11.8,5.3-11.8,11.8l0,0
		c0,6.5,5.3,11.8,11.8,11.8l0,0C204.6,417.8,209.9,412.5,209.9,406L209.9,406z" class="st3"></path>
	<path d="M856.9,376c0.2-0.4,0.5-0.6,1-0.6c52,2.7,47.9,54.9,49.4,91.1c0,0.9-0.6,1.7-1.5,1.7c-0.3,0-0.7-0.1-1-0.3
		c-11.8-7.4-24.7-9.6-38.5-6.7c-0.9,0.2-1.3-0.2-1.2-1.1c3-26.9-7.7-45.1-32.2-54.6c-0.5-0.2-0.8-0.8-0.6-1.3
		c0.1-0.2,0.2-0.4,0.4-0.5C843.2,396.8,851.3,387.5,856.9,376z" class="st3"></path>
	<path d="M707,402.3c-6.3-6.1-9.6-13.9-9.8-23.5c-0.6,0.5-0.9,0-1.1-1.6c1-0.4,1.9-0.6,2.6-0.5c0.8,0.1,1.5,0.7,1.6,1.5
		c4.1,26,34.4,24.8,50.9,12.1c0.7-0.5,1.6-0.4,2.2,0.3c0.1,0.1,0.2,0.2,0.2,0.4l1.6,3.9c0.3,0.8,0.1,1.5-0.6,2.1
		C741,406.8,722.3,411.4,707,402.3z" class="st1"></path>
	<path d="M696.1,377.3c0.2,1.6,0.6,2.1,1.1,1.6c-2.9,0.7-5,2-6.1,4c-1.2-0.1-2.3,0-3.2,0.6c-4.8,2.8,0.2,14.7,2.8,18.2
		c14.2,19.7,41.7,19.3,61,9c3.7-2,7.4-3.9,11.2-5.7c0.6-0.3,1.3-0.2,1.8,0.2c6.2,4.9,13.2,8.2,21,9.8c0.7,0.1,1.2,0.5,1.5,1.1
		c2.2,3.6,4.2,8.1,6,13.5c9.3,27.2,16.1,53.9,20.2,80.1c-5.3-1.5-9.4-3.9-12.1-7.2c12.2-15.3-31-20.6-37.7-20.3
		c-0.8,0-1.5-0.2-2.1-0.8c-16.1-16.8-26.9-26.6-52.3-21c-0.8,0.2-1.7,0-2.4-0.5c-6.5-4.4-13.8-6-21.7-4.8c-1,0.1-1.5-0.3-1.5-1.4
		c1-14.3,2.7-26-11.3-33.4c-6.8-3.6-17.1-2-25.1-2.2c-0.5,0-0.9-0.4-0.9-0.9c0-0.2,0.1-0.4,0.2-0.5
		C659,397.7,670.5,378.6,696.1,377.3z M744.1,460c2.8,0.7,6.2-3.3,7.6-8.9c0,0,0,0,0,0c1.4-5.6,0.3-10.7-2.5-11.4
		c-2.8-0.7-6.2,3.3-7.6,8.9c0,0,0,0,0,0C740.1,454.2,741.3,459.3,744.1,460z" class="st2"></path>
	<path d="M356.2,387c-29.4,18.8-57.3,17.5-83.8-3.7c4.4-2.7,9.3-4.3,14.7-4.7c0.8-0.1,1.6,0.1,2.3,0.6
		c14.2,9.1,29,10.8,44.6,5.1C342.9,380.9,348.2,382.8,356.2,387z" class="st1"></path>
	<path d="M697.2,378.9c0.2,9.5,3.5,17.3,9.8,23.5c-9.9,0.4-12.7-12.5-16-19.4C692.3,380.9,694.3,379.5,697.2,378.9z" class="st3"></path>
	<path d="M272.3,383.2c26.5,21.3,54.5,22.5,83.8,3.7c8.6,4.5,15,9.6,19.2,15.5c22.3,30.9,44.8,61.6,67.7,92.2
		c0.6,0.8,0.4,1.3-0.5,1.5c-14.6,3.6-27.9,10.1-39.8,19.3c-0.6,0.5-1.5,0.4-2-0.2c-0.2-0.2-0.3-0.5-0.3-0.8
		c-0.2-6.7,0.4-24.5-4.5-29.1c-0.6-0.5-1.3-0.8-2.1-0.8c-8.1,0.6-4.3,18.7-4.4,23.2c0,1.4-0.4,1.6-1.3,0.4
		c-10.5-14.4-29.5-18-46.1-16.1c-15.2,1.8-29.1,12.2-44.8,13.7c-12.4,1.2-24.7,0.7-36.9-1.3c-23.2-4-43.4-2.8-52.3,23.3
		c-0.5,1.5-1.1,2.7-1.7,3.6c-0.6,0.8-1.6,1.4-3.2,1.6c-3.6,0.4-6.9,0.9-9.7,1.5c-1.6,0.3-2.2-0.3-1.7-1.9
		c9.9-29.6,21-58.2,33.1-85.8C236.1,421.5,246.7,397,272.3,383.2z M285.6,480.1c0-2.2-1.9-4-4.1-4c0,0,0,0,0,0l-1.6,0
		c-2.2,0-4,1.9-4,4.1l0.2,14.4c0,2.2,1.9,4,4.1,4c0,0,0,0,0,0l1.6,0c2.2,0,4-1.9,4-4.1L285.6,480.1z" class="st2"></path>
	<circle r="11.8" cy="406" cx="198" class="st2"></circle>
	<path d="M56.6,414.1l18.9-0.1c2.3,0,4.2,1.8,4.2,4.2l0,0.4c0,2.3-1.8,4.2-4.2,4.2l-18.9,0.1c-2.3,0-4.2-1.8-4.2-4.2
		l0-0.4C52.4,416,54.3,414.1,56.6,414.1z" class="st3"></path>
	<path d="M823.1,493.9c-0.2,0.3-0.7,0.3-1,0.1c-0.1-0.1-0.2-0.2-0.2-0.4c-5.6-25.6-12.8-50.8-21.4-75.6
		c-0.3-0.9,0-1.4,0.9-1.6c6.3-1,13.9-3,19.8-2.5c27.8,2.5,37,25.3,32.3,50.6c-0.1,0.8-0.6,1.5-1.2,1.9
		C841,474.1,831.3,483.2,823.1,493.9z M837.8,443.1c0-5.3-4.3-9.6-9.6-9.6l0,0c-5.3,0-9.6,4.3-9.6,9.6l0,0c0,5.3,4.3,9.6,9.6,9.6
		l0,0C833.5,452.7,837.8,448.4,837.8,443.1L837.8,443.1z" class="st1"></path>
	<path d="M607.4,451.4c-4.4-9.2-10.8-39.3,11.8-30.8c15.1,5.7,30.9,8.3,47.3,7.7c0.9,0,1.7,0.2,2.3,0.8
		c10.2,8.5,3.3,33.7,1.7,43.4c-0.1,0.6-0.6,1-1.2,1l-16-1.1c-0.8,0-1.3-0.5-1.4-1.3c-3.6-21.3-23.3-34.1-42.4-19.1
		C608.6,452.6,607.9,452.4,607.4,451.4z" class="st3"></path>
	<ellipse ry="14.3" rx="17.7" cy="441.7" cx="566" class="st2" transform="matrix(0.673 -0.7396 0.7396 0.673 -141.625 563.0416)"></ellipse>
	<path d="M957.4,426.2c11-3.9,15.5,6.3,20.8,14c0.4,0.6,1.3,0.9,2,0.5c18.4-8.4,34.8,10.2,18.1,24.5
		c-9.6,8.2-21,11.3-34.1,9.2C949.3,472,937.5,433.2,957.4,426.2z M970.9,451.3c-1.5-6.1-3.7-16.5-11.2-16c-0.8,0.1-1.6,0.5-2,1.2
		c-4.2,7,2.7,22,6.5,27.5c0.5,0.7,1.2,1.1,2,1.1c10.1,0.6,24.8-1.5,29-12.4c0.3-0.8,0.1-1.5-0.5-2.1c-5.9-5.6-15.1,0.6-22,1.9
		C971.9,452.7,971.1,452.1,970.9,451.3z" class="st0"></path>
	<circle r="9.6" cy="443.1" cx="828.2" class="st0"></circle>
	<path d="M972.7,452.5c6.9-1.3,16.2-7.5,22-1.9c0.6,0.6,0.8,1.3,0.5,2.1c-4.2,10.9-19,13-29,12.4c-0.8,0-1.6-0.5-2-1.1
		c-3.8-5.4-10.7-20.5-6.5-27.5c0.4-0.7,1.2-1.2,2-1.2c7.4-0.5,9.7,9.9,11.2,16C971.1,452.1,971.9,452.7,972.7,452.5z" class="st3"></path>
	
		<ellipse ry="5.2" rx="10.5" cy="449.8" cx="746.6" class="st0" transform="matrix(0.2419 -0.9703 0.9703 0.2419 129.5007 1065.4363)"></ellipse>
	<path d="M126.9,459.3c29.8-11.5,51.4,2.3,70.5,23.9c0.5,0.5,0.6,1.3,0.4,2c-5.2,14.5-10.4,29-15.5,43.6
		c-6.6,19,9.2,16.1,20.9,14.2c1-0.2,1.5,0.2,1.7,1.2c3.7,19,15.1,26.3,34.4,21.7c0.7-0.2,1,0.1,0.9,0.9c-0.8,4.1-1.7,8.1-2.5,12.1
		c-9.3,46-54.1,35.7-87.6,36.5c-0.8,0-1.4-0.3-1.9-0.9c-24.6-30.5-43.4-55.8-56.3-75.9c-5.8-9-6.6-22.4-4.1-33.3
		C93,482.7,106.1,467.3,126.9,459.3z M138.3,485.2c0-5.4-4.4-9.8-9.8-9.8c0,0,0,0,0,0c-5.4,0-9.8,4.4-9.8,9.8c0,5.4,4.4,9.8,9.8,9.8
		C133.9,495,138.3,490.6,138.3,485.2L138.3,485.2z M183.5,500.4c0-5.5-4.4-9.9-9.9-9.9c-5.5,0-9.9,4.4-9.9,9.9
		c0,5.5,4.4,9.9,9.9,9.9h0C179.1,510.4,183.5,505.9,183.5,500.4L183.5,500.4z M116.7,530c0-5.3-4.3-9.5-9.5-9.5s-9.5,4.3-9.5,9.5
		c0,5.3,4.3,9.5,9.5,9.5h0C112.4,539.5,116.7,535.3,116.7,530z M162.5,555.9c0-5.5-4.5-10-10-10c-5.5,0-10,4.5-10,10
		c0,5.5,4.5,10,10,10h0C158,565.9,162.5,561.4,162.5,555.9C162.5,555.9,162.5,555.9,162.5,555.9z M207.2,586.6c0-5.5-4.5-10-10-10
		l0,0c-5.5,0-10,4.5-10,10v0c0,5.5,4.5,10,10,10C202.8,596.6,207.2,592.1,207.2,586.6z" class="st1"></path>
	<path d="M619.6,492.2c-26-32.3,19.5-53.9,22.5-18c0.1,0.9-0.4,1.8-1.1,2.2c-7.3,4.4-13.8,9.7-19.6,15.9
		C620.7,492.9,620.1,492.9,619.6,492.2z M634.3,473c0-4-3.2-7.2-7.2-7.2l0,0c-4,0-7.2,3.2-7.2,7.2l0,0c0,4,3.2,7.2,7.2,7.2l0,0
		C631.1,480.2,634.3,477,634.3,473L634.3,473z" class="st1"></path>
	<circle r="7.1" cy="469.7" cx="49.6" class="st0"></circle>
	<path d="M681,472.4l0.7-5.5c0.1-0.7,0.6-1.4,1.3-1.6c3.9-1.2,7.9-1.1,11.9,0.2c1,0.3,1,0.8,0.1,1.3l-12.4,6.8
		c-0.6,0.3-1.3,0.1-1.6-0.5C681,472.9,681,472.6,681,472.4z" class="st3"></path>
	<circle r="7.2" cy="473" cx="627.2" class="st4"></circle>
	<path d="M778.2,553.2c1.1,1.8,2.4,3.3,4.1,4.4c0.7,0.5,1.1,1.2,1.1,2c0,3.7-1.8,5.9-5.5,6.6c-0.7,0.1-1.5,0-2-0.4
		l-15.6-10.6c2.6-3.5,4.1-6.1,0.2-9.4c-24.4-20.2-45.5-43.2-69.9-63.3c-0.5-0.4-0.5-1.1-0.1-1.5c0.1-0.1,0.1-0.1,0.2-0.2
		c21.7-14,46.3-17.6,62,5.9c10.4,15.5,12.9,38.9,16,57.9C769.7,550.8,772.9,553.7,778.2,553.2z" class="st2"></path>
	<path d="M797,564.2c13.7-1,25.9-5.3,36.5-13c8.9,4.7,15.1,0.9,16.8-9.5c8.8-4.6,17.1-11,24.9-19
		c9.1-2.2,12.2-8.2,9.2-17.9c3.8-14.3-1.5-25.4-16.1-33.2c10.3-2,19.7-0.7,28.2,4.1c27.8,15.4,33.4,50.2,22.2,78.7
		c-4.1,10.5-14.9,30.4-32.3,59.8c-0.4,0.7-1,1-1.8,1c-21.7,0.6-43.3,0.3-64.9-1C796.5,612.9,791,582.5,797,564.2z M899.3,566.1
		c0-5.3-4.3-9.5-9.5-9.5l0,0c-5.3,0-9.5,4.3-9.5,9.5l0,0c0,5.3,4.3,9.5,9.5,9.5S899.3,571.4,899.3,566.1z M851,591.9
		c0-5.3-4.3-9.7-9.7-9.7c-5.3,0-9.7,4.3-9.7,9.7c0,5.3,4.3,9.7,9.7,9.7C846.7,601.5,851,597.2,851,591.9z" class="st1"></path>
	<path d="M868.4,471.6c14.5,7.8,19.9,18.9,16.1,33.2c-15.4-11.2-28,11.2-9.2,17.9c-7.8,8-16.1,14.4-24.9,19
		c-5.4-9.3-11.1-10.7-17-4.3c-4.1,4.4-2.9,9.3,0.2,13.9c-10.6,7.7-22.8,12-36.5,13C807.7,533.4,835.2,480.4,868.4,471.6z" class="st3"></path>
	<circle r="9.8" cy="485.2" cx="128.5" class="st0"></circle>
	<path d="M522.8,479.6c7.7-11.3,20.9-0.8,28.2,7.2c0.5,0.5,1.3,0.6,1.8,0.1c0.1-0.1,0.1-0.1,0.2-0.2
		c3.2-4.5,7.1-7.7,11.6-9.8c9.4-4.2,19.2,1.8,17.6,12.6c-1.5,10.2-17.8,21.6-27.5,24.9C542.8,518.4,512.6,494.5,522.8,479.6z" class="st0"></path>
	<path d="M279.9,476.2l1.6,0c2.2,0,4.1,1.8,4.1,4l0.2,14.4c0,2.2-1.8,4.1-4,4.1l-1.6,0c-2.2,0-4.1-1.8-4.1-4l-0.2-14.4
		C275.9,478,277.6,476.2,279.9,476.2z" class="st0"></path>
	<path d="M760.3,555.2l15.6,10.6c0.6,0.4,1.3,0.6,2,0.4c3.7-0.7,5.5-2.9,5.5-6.6c0-0.8-0.4-1.5-1.1-2
		c-1.7-1.1-3.1-2.6-4.1-4.4c1-0.6,1.4-1.5,1.3-2.7c-0.6-8.8-2.4-20.3-5.4-34.3c-0.3-1.2,0.2-1.6,1.3-1.1c8.9,3.3,17.1,7.8,24.8,13.4
		c0.8,0.6,0.9,1.3,0.5,2.1c-6.2,12.2-13.5,25.1-16.3,38.6c-2.1,10.2-0.1,23.4-0.6,32.3c-0.9,16.3-13.2,15.1-27.3,15.2
		c-23.5,0.2-47-0.2-70.4-1.4c-0.4,0-0.8-0.4-0.8-0.8c0-0.1,0-0.2,0-0.2c3-9.2,5.9-18.5,8.8-27.8c1.4-4.6,1.2-8.4-4.3-9.1
		c-0.8-0.1-1.6,0.1-2.1,0.8c-1.6,1.7-2.7,3.7-3.4,6c-16.9,53-33.5,106.2-49.8,159.4c-6.8,22.3-65.4,0-79.1-5.5
		c-0.8-0.3-1-0.9-0.5-1.6l12.4-19.7c0.6-1,1.9-1.3,2.9-0.9c17.9,8.2,34.8,18.1,50.8,29.6c0.7,0.5,1.5,0.7,2.3,0.7
		c8-0.3,5.6-8.2,1-11.5c-11.3-8.1-23.1-15.3-35.5-21.5c-0.8-0.4-1.1-1-0.9-1.9c0.7-2.7,2-5.4,1.8-8c-0.6-10.9-16.3-12.5-19-0.8
		c-0.2,0.9-0.7,1.2-1.6,0.9c-11.8-3.8-22.8-8.8-35.2-9.2c-0.8,0-1.3-0.6-1.3-1.4c0-0.2,0.1-0.4,0.1-0.5L590,570.7
		c0.4-0.9,1.1-1.2,2-0.9l4.1,1.2c0.8,0.2,1.7,0.2,2.5,0c10-2.8,12.4-15.2,1.9-19.8c-0.8-0.3-1-0.9-0.6-1.6
		c9.7-21.8,28.2-60.5,52.4-65.8c29.4-6.4,64,36.2,86.8,57.7C746.4,548.2,753.4,552.8,760.3,555.2z M668.1,500.5
		c0-5.3-4.3-9.5-9.5-9.5c-5.3,0-9.5,4.3-9.5,9.5c0,5.3,4.3,9.5,9.5,9.5C663.9,510,668.1,505.7,668.1,500.5z M712.6,544.8
		c0-5.3-4.3-9.6-9.6-9.6c0,0,0,0,0,0c-5.3,0-9.6,4.3-9.6,9.6c0,0,0,0,0,0c0,5.3,4.3,9.6,9.6,9.6S712.6,550.1,712.6,544.8z
		 M662.6,556.8c0-5.3-4.3-9.7-9.7-9.7l0,0c-5.3,0-9.7,4.3-9.7,9.7c0,5.3,4.3,9.7,9.7,9.7S662.6,562.1,662.6,556.8L662.6,556.8z
		 M768.8,572.6c0-5.3-4.3-9.5-9.5-9.5l0,0c-5.3,0-9.5,4.3-9.5,9.5l0,0c0,5.3,4.3,9.5,9.5,9.5l0,0
		C764.5,582.2,768.8,577.9,768.8,572.6L768.8,572.6z M736.4,599.1c0-5.2-4.2-9.4-9.4-9.4s-9.4,4.2-9.4,9.4c0,5.2,4.2,9.4,9.4,9.4
		S736.4,604.3,736.4,599.1z M634.7,617.1c0-5.6-4.6-10.2-10.2-10.2l0,0c-5.6,0-10.2,4.6-10.2,10.2l0,0c0,5.6,4.6,10.2,10.2,10.2l0,0
		C630.1,627.3,634.7,622.7,634.7,617.1L634.7,617.1z M591.5,642.9c0-5.5-4.4-9.9-9.9-9.9h0c-5.5,0-9.9,4.4-9.9,9.9l0,0
		c0,5.5,4.4,9.9,9.9,9.9C587.1,652.7,591.5,648.3,591.5,642.9L591.5,642.9z M632.3,670.2c0-5.5-4.5-10-10-10l0,0
		c-5.5,0-10,4.5-10,10l0,0c0,5.5,4.5,10,10,10S632.3,675.7,632.3,670.2z" class="st1"></path>
	<circle r="9.9" cy="500.4" cx="173.6" class="st0"></circle>
	<circle r="9.5" cy="500.5" cx="658.6" class="st0"></circle>
	<path d="M778.3,493.8l13,4.8l10,3.8c2.8,3.3,6.8,5.7,12.1,7.2c-1.4,0.3-2.7,1.9-3.9,4.6c-12.6-6.3-25.6-11.3-39.1-14.9
		c-1.4-1.3-2.3-3.4-2.7-6.2c-0.1-0.9,0.3-1.2,1.1-1.1L778.3,493.8z" class="st1"></path>
	<path d="M778.3,493.8c4.6,0.2,9,1.8,13,4.8L778.3,493.8z" class="st3"></path>
	<path d="M770.5,499.4c13.5,3.7,26.5,8.6,39.1,14.9l-1.8,3.4c-0.4,0.8-1,1-1.8,0.5c-10-6.5-21.3-11.4-34-14.9
		C770.7,503,770.2,501.7,770.5,499.4z" class="st3"></path>
	<path d="M532.5,614.5c-11.2-11.4-10.1-23.7,0.7-34.8c25.8-26.4,51.5-52.7,77.2-78.9c0.5-0.5,1.3-0.6,1.9-0.2
		c0.7,0.4,0.9,0.9,0.5,1.5c-19.5,36.3-37.6,73.5-54.2,111.6c-0.8,1.7-2.1,2.6-4,2.6h-17.9C535.2,616.3,533.6,615.7,532.5,614.5z" class="st2"></path>
	<path d="M380,514.3c-9-3.2-17.6-4.1-25.9-2.8c-6,1-7.8,7.8-1.4,10.9c7.8,3.8,16.3,4.1,25.6,0.8
		c-14.4,15.4-36.7,4.1-55,6.8c-9.4,1.4-17.5,3.6-27.5,2.7c-18.3-1.7-33.8,4.5-46.3,18.5c-1.9,2.1-6.8,3.8-14.7,5
		c-32.7,5.3-19.1-47.4,9.6-44c19,2.2,36.1,6.4,56.3,3.6c16.5-2.3,30.2-13.2,46.7-13.8C359,501.5,373.1,503.5,380,514.3z" class="st1"></path>
	<path d="M884.5,504.8c3,9.7-0.1,15.6-9.2,17.9C856.5,516,869.1,493.6,884.5,504.8z" class="st0"></path>
	<path d="M387.4,604.5l3.5-22.4c0.3-2-1.1-3.9-3.1-4.3c-1.4-0.2-2.8,0.3-3.6,1.5c-4,5.3-6.3,12.9-7,22.7
		c-13.6-16.6,4.2-46.5,17.8-55.7c14.7-10,24.7-15.6,33.8-28c23.7-32.6,60.7,8,33.1,17c-19.3,6.4-51.3,11.7-53.5,35.9
		C407.1,585.2,403.4,600.2,387.4,604.5z M398.3,591.7c1.7,0.4,3.7-1.9,4.4-5s-0.2-6-1.9-6.4c-1.7-0.4-3.7,1.9-4.4,5
		C395.8,588.5,396.6,591.3,398.3,591.7z" class="st1"></path>
	<path d="M251.7,664c-26.5-7-21.7,38.9,6.3,32.2l13.2,60.1c0.2,1.1-0.2,1.7-1.3,1.7c-66.2,0.5-132.3,0.6-198.1,0.2
		c-34.2-0.2-34.9-20.3-36.2-48l-2-3.6c5.6-2.6,4-14.8-4.8-14.9c0.8-1,1.3-2.2,1.6-3.5c8.3,1.6,6.2-12,4.4-16.3l0.6-4.4
		c0.9-5,0.6-9.8-0.8-14.4c-0.3-0.9-0.9-1.3-1.8-1.3l-6.7,0c1.1-0.4,1.4-1.7,1.1-3.9c2.9,0.4,5.1,0.1,6.7-0.9c0.7-0.5,1.1-1.1,1.1-2
		c0.4-27.7,0.6-55.3,0.6-82.9c0-8.8,1.8-78,28.1-45c9.9,12.4,20.5,27.5,31.9,45.4c0.4,0.6,0.5,1.4,0.2,2.1c-7.9,17.7-10,35.4,3.2,51
		c0.4,0.5,0.4,1.1-0.1,1.5c-0.1,0.1-0.3,0.2-0.4,0.2c-17,4.9-21.8,16.7-22.5,34.2c-1,25.1-1,50.3,0.1,75.4c0.2,4,2.1,5.8,6.2,4.4
		c2.1-0.7,3.5-2.7,3.5-4.9c0-23,0-46.3,0-69.9c0-14.3,3.5-30.3,20.9-30.3c45.6-0.1,91.1-0.7,136.7-1.7c0.8,0,1.3,0.4,1.5,1.2
		L251.7,664z M211.4,699.2c0-4-3.2-7.2-7.2-7.2s-7.2,3.2-7.2,7.2l0,0c0,4,3.2,7.2,7.2,7.2l0,0C208.2,706.4,211.4,703.2,211.4,699.2z" class="st3"></path>
	<path d="M996.8,648.4c-2.5,1.7-2.6,3-0.6,3.9c-15.7-0.8-13.7,17.2-0.3,15c-1.4,1.4-1.5,2.9-0.3,4.5
		c-3.1-0.1-5.9,0.3-8.6,1.4c-0.9,0.4-1.5,1.4-1.5,2.4l0.8,10.6c0.1,1.1,0.6,1.9,1.7,2.2c1.2,0.4,2.5,0.6,4,0.4
		c-1.4,1.3-2.1,2.7-2.1,4.3c-4.6,1.5-5.6,6.2-2.8,14.1l-0.3,5c-1.1,8.6-0.1,19.5-2.2,26.4c-4.4,14.4-17.9,19-31.9,19.1
		c-94.8,0.6-156.1,0.8-184,0.5c-53.5-0.6-87.4,0.5-130.3-0.8c-1.2,0-1.4-0.5-0.6-1.4c7.7-8.8,10.5-21.8,13.7-33
		c0.4-1.3,1.6-2.3,3-2.5c44.7-5.4,59-71,98.8-90.4c9.7-4.8,25.7-5,36.8-4.8c42.3,0.5,84.5,0.7,126.8,0.5c15.4,0,23.4,7.7,24.1,23.1
		c0.9,21.2,1,42.3,0.4,63.5c-0.1,4.7,1,10.1,0.3,15.4c-0.2,1.2,0.4,2,1.6,2.2l4.7,0.9c1.6,0.3,3.1-0.8,3.4-2.3c0-0.2,0-0.3,0-0.5
		c0.5-20.4,0.7-40.6,0.7-60.8c0-21.4,0.6-44.9-25.7-50.8c-1.1-0.2-1.3-0.8-0.6-1.6c9.9-12.6,11.2-31.8-4.6-40.5
		c-0.6-0.3-0.9-1.1-0.5-1.7c0,0,0,0,0,0c11.7-20.6,28.1-48.4,46.4-63.3c1.9-1.6,4.7-1.6,6.6,0c9,7.3,11,20.5,11.3,31.3
		c1,35.2,1.5,70.5,1.6,105.7c0,0.8,0.5,1.4,1.2,1.7C989.9,649,992.9,649,996.8,648.4z M918.6,676.8c0-3.9-3.2-7.1-7.1-7.1
		c0,0,0,0,0,0c-3.9,0-7.1,3.2-7.1,7.1c0,3.9,3.2,7.1,7.1,7.1c0,0,0,0,0,0C915.4,683.9,918.6,680.7,918.6,676.8
		C918.6,676.8,918.6,676.8,918.6,676.8z M737,679.9c0-3.8-3.1-6.9-6.9-6.9c-3.8,0-6.9,3.1-6.9,6.9s3.1,6.9,6.9,6.9l0,0
		C733.9,686.8,737,683.7,737,679.9L737,679.9z" class="st3"></path>
	<path d="M380,514.3c0.9,2.8,0.3,5.8-1.7,8.9c-9.3,3.3-17.8,3-25.6-0.8c-6.3-3.1-4.6-9.9,1.4-10.9
		C362.3,510.2,370.9,511.1,380,514.3z" class="st4"></path>
	<circle r="9.5" cy="530" cx="107.1" class="st0"></circle>
	<path d="M388.7,524.1c-0.2-0.6,0-1.2,0.3-1.7c0.5-0.7,0.8-0.6,1,0.2c0.9,4.1,1,8.2,0.2,12.4c-0.1,0.8-0.5,1.6-1.1,2.2
		l-16.8,17.6c-0.2,0.3-0.6,0.4-0.9,0.5l-18.8,2.6c-1.1,0.1-1.7-0.3-1.8-1.5l-0.7-13.7c0-1,0.4-1.5,1.4-1.4
		C366.7,541.9,381.8,538.8,388.7,524.1z" class="st3"></path>
	<path d="M850.3,541.7c-1.7,10.4-7.9,14.2-16.8,9.5c-3-4.5-4.3-9.4-0.2-13.9C839.3,531,844.9,532.4,850.3,541.7z" class="st0"></path>
	<circle r="9.6" cy="544.8" cx="703" class="st0"></circle>
	<path d="M340.2,557.2c-13.2,3.3-17.9-5.3-25-14.1c-0.4-0.5-0.3-1.3,0.2-1.7c0.2-0.1,0.4-0.2,0.6-0.3l21.9-1.8
		c1-0.1,1.9,0.7,2,1.7c0,0,0,0,0,0l1.3,15C341.2,556.7,340.9,557.1,340.2,557.2z" class="st3"></path>
	<path d="M267.4,549.2c22.6-13.2,43.8-0.4,55,19.9c2.4,4.2,4.6,11.2,6.6,20.8c10.2,48.2,22,96.1,35.4,143.8
		c0.3,1.1-0.1,1.8-1.2,2l-80.6,16.9c-0.9,0.2-1.5-0.2-1.7-1.1c-10.7-48.8-20.2-97.1-28.3-144.8C248.8,585.7,245.5,562,267.4,549.2z" class="st3"></path>
	<circle r="10" cy="555.9" cx="152.5" class="st0"></circle>
	<path d="M374.4,612.7c31.2,5.9,41.6-14.7,43.5-42.1c1-13.6,30.5-20.5,47.6-24.9c0.7-0.2,1.5-0.1,2.2,0.3
		c9.8,6.2,16.1,15.3,18.8,27c5.1,22.5-1.8,35.1-16.6,53.7c-29.3,36.8-59.4,72.7-90.2,107.6c-0.6,0.6-1.6,0.7-2.2,0.1
		c-0.2-0.2-0.3-0.4-0.4-0.6c-10.3-29.9-18.7-60.3-25.3-91.3c-0.6-2.7-0.5-4.4,0.2-5.2c7.1-7.7,13.9-15.7,20.5-23.9
		C372.9,612.8,373.6,612.5,374.4,612.7z" class="st3"></path>
	<circle r="9.7" cy="556.8" cx="652.9" class="st0"></circle>
	<circle r="9.5" cy="566.1" cx="889.8" class="st0"></circle>
	<circle r="9.5" cy="572.6" cx="759.3" class="st0"></circle>
	<circle r="10" cy="586.6" cx="197.3" class="st0"></circle>
	<path d="M387.4,604.5c-4.6,0.6-7.9-0.2-10.1-2.5c0.7-9.8,3-17.4,7-22.7c1.2-1.7,3.6-2,5.2-0.8c1.1,0.8,1.7,2.2,1.5,3.6
		L387.4,604.5z" class="st4"></path>
	<ellipse ry="3.2" rx="5.9" cy="586" cx="399.6" class="st4" transform="matrix(0.213 -0.977 0.977 0.213 -258.084 851.5895)"></ellipse>
	<circle r="9.7" cy="591.9" cx="841.4" class="st0"></circle>
	<circle r="9.4" cy="599.1" cx="726.9" class="st0"></circle>
	<circle r="10.2" cy="617.1" cx="624.5" class="st0"></circle>
	<path d="M518.8,703.8c-0.3-0.5-1,0-2.1,1.4c-9.2,9.5-17.6,35.1-22.8,47.5c-1.2,2.9-4.1,4.9-7.3,5l-35,0.7
		c-0.8,0-1.2,0.4-1.2,1.2l0,9.3l-4.9,0.1c1.1-3.7,1.1-6.9-0.1-9.7c-0.4-0.9-1.3-1.5-2.2-1.5H434c-0.9,0-1.7,0.6-2,1.4
		c-1.2,3.5-0.8,6.9,1.2,10.1l-8.5-0.4c0.9-3.3,1-6.5,0.2-9.6c-0.3-1-0.9-1.5-2-1.5h-8.3c-0.7,0-1.2,0.3-1.5,1
		c-1.5,3.3-1.6,6.8-0.5,10.5c-2.2-0.8-3.6-0.8-4.2,0l-0.7-9.9c-0.1-1-0.9-1.8-1.9-1.7l-27.1,0.8c-4,0.1-4.7-1.3-2.1-4.4l24.5-28.8
		c0.6-0.7,1.3-1,2.1-1.1c54.7-4.8,66.6-70.5,109.3-93.2c11.3-6,25.2-5,37.6-3.5c1,0.1,1.2,0.6,0.8,1.5c-15.2,31-26.3,54.6-33.4,70.9
		C517,700.7,517.5,702,518.8,703.8z M488,724.9c0-6.2-5-11.2-11.2-11.2s-11.2,5-11.2,11.2c0,6.2,5,11.2,11.2,11.2h0
		C482.9,736.1,488,731.1,488,724.9C488,724.9,488,724.9,488,724.9z" class="st3"></path>
	<circle r="9.9" cy="642.9" cx="581.6" class="st0"></circle>
	<path d="M26.1,651.8l6.7,0c0.9,0,1.5,0.4,1.8,1.3c1.4,4.6,1.7,9.4,0.8,14.4c-3.1,1.1-6,1-8.6-0.4
		c-0.8-0.4-1.2-1-1.1-1.9L26.1,651.8z" class="st0"></path>
	<path d="M996.2,652.3c1,5.2,0.9,10.2-0.3,15C982.6,669.5,980.5,651.6,996.2,652.3z" class="st0"></path>
	<circle r="10" cy="670.2" cx="622.3" class="st0"></circle>
	<path d="M251.7,664l6.3,32.2C230,702.9,225.3,657,251.7,664z" class="st2"></path>
	<circle r="7.1" cy="676.8" cx="911.5" class="st0"></circle>
	<path d="M34.8,671.9c1.8,4.3,3.9,17.9-4.4,16.3c-7.8,1-5.8-9.9-5-14.3c0.2-0.8,0.7-1.3,1.5-1.4L34.8,671.9z" class="st0"></path>
	<path d="M995.6,671.8c0.5-0.1,1,0.2,1.4,1c0.2,0.5,0.3,1,0.2,1.7c-0.5,4.1-0.7,8.3-0.6,12.6c0,0.9-0.4,1.4-1.2,1.6
		c-1.1,0.3-2.3,0.3-3.5,0.1c-1.5,0.2-2.8,0.1-4-0.4c-1-0.4-1.6-1.1-1.7-2.2l-0.8-10.6c-0.1-1,0.5-2,1.5-2.4
		C989.6,672.1,992.5,671.7,995.6,671.8z" class="st0"></path>
	<circle r="6.9" cy="679.9" cx="730.1" class="st0"></circle>
	<path d="M28.7,691.7c8.8,0.1,10.4,12.4,4.8,14.9c-2.4,0.1-4.5-0.3-6.3-1.3c-0.7-0.4-1.2-1-1.4-1.7
		C24.1,698.3,25,694.4,28.7,691.7z" class="st0"></path>
	<circle r="7.2" cy="699.2" cx="204.2" class="st0"></circle>
	<path d="M989.8,693.1l5,0.1c1.1,0,1.9,0.9,1.9,2v9.5c0,1-0.4,1.7-1.3,2.1c-2.6,1.2-5.4,1.3-8.4,0.5
		C984.2,699.4,985.2,694.7,989.8,693.1z" class="st0"></path>
	<path d="M518.8,703.8c13.4-0.2,26.3,2.2,38.9,7.3c0.7,0.3,0.9,0.8,0.5,1.5l-7.3,11.6c-0.4,0.6-0.9,0.7-1.5,0.4
		c-9.9-5.8-19.5-12-28.9-18.5c-0.7-0.5-2-0.8-3.7-0.8C517.8,703.8,518.5,703.3,518.8,703.8z" class="st1"></path>
	<circle r="11.2" cy="724.9" cx="476.7" class="st0"></circle>
	<path d="M538,744.1c-11.6-0.4-17.9-1.8-29.4,2.2c-0.9,0.3-1.2,0-0.8-0.8l11.9-26.2c0.3-0.6,1-0.9,1.6-0.6
		c0.1,0,0.1,0.1,0.2,0.1l22.1,14.5c0.7,0.5,0.9,1.4,0.5,2.1l-4.5,7.8C539.2,743.9,538.7,744.2,538,744.1z" class="st1"></path>
	<path d="M574,757.4c-5.2,0.7-29.7,3.8-27.1-7.3c0.4-1.6,2-2.6,3.5-2.2c0.1,0,0.2,0.1,0.3,0.1l23.3,8.4
		C575.3,756.9,575.3,757.2,574,757.4z" class="st3"></path>
	<path d="M343.6,782.3c0.2,1.4-0.4,2-1.8,1.9c-11-1.1-20.9,1.7-29.5,8.5c-0.8,0.7-1.3,0.4-1.4-0.6
		c-0.9-10.4-3-20.6-6.3-30.5c-0.3-0.9,0.2-1.9,1.1-2.2c0,0,0.1,0,0.2,0l31.5-7.2c0.7-0.2,1.4,0.3,1.6,1c0,0,0,0,0,0.1L343.6,782.3z" class="st1"></path>
	<path d="M460.3,812.4c16.4-1.7,31.7-5.5,45.7-11.5c25-10.6,21.8-36.3-6.4-37.1c9.1-7.4,25.2-14.9,35.9-8.3
		c5.4,3.3,7.6,9,6.4,16.9c-2.3,16.3-15.8,25.9-30.5,33.3C495.3,813.8,478.3,816,460.3,812.4z" class="st1"></path>
	<path d="M424.7,768.8l-12.2,0.5c-1.1-3.8-1-7.3,0.5-10.5c0.3-0.7,0.8-1,1.5-1h8.3c1.1,0,1.7,0.5,2,1.5
		C425.7,762.3,425.6,765.5,424.7,768.8z" class="st0"></path>
	<path d="M445.5,768.9l-12.3,0.3c-2-3.2-2.4-6.6-1.2-10.1c0.3-0.8,1.1-1.4,2-1.4h9.2c1,0,1.9,0.6,2.2,1.5
		C446.6,762.1,446.7,765.3,445.5,768.9z" class="st0"></path>
	<path d="M499.6,763.9c28.2,0.8,31.5,26.5,6.4,37.1c-14.1,6-29.3,9.8-45.7,11.5c-3-1.6-5.4-4.6-7-9
		c14.7,1.4,41-6,31.6-26.5L499.6,763.9z" class="st3"></path>
	<path d="M590.5,811.5c-20.4-0.6-42.4-0.7-65.9-0.5c-0.2,0-0.4-0.2-0.4-0.4c0-0.1,0.1-0.3,0.2-0.3
		c15.4-8.3,27.7-22.2,27.3-40.5c0-0.9,0.7-1.6,1.6-1.6c0,0,0,0,0,0l355.5,0.9c3,0,4.5,1.5,4.5,4.5v36.2c0,0.8-0.4,1.2-1.2,1.2
		l-40.3,0.7c-0.8,0-1.4-0.6-1.4-1.3c0-0.3,0.1-0.6,0.3-0.9c10-13.3-0.5-32.4-16.7-21.7c-2.9,1.9-5.9,5.5-9,8.3
		c-0.6,0.5-1.4,0.5-1.9-0.1c0,0,0,0,0-0.1c-3.9-4.9-6.6-7.8-8.3-8.7c-17.9-9.9-25.6,9.1-16.7,22.2c0.4,0.5,0.2,1.3-0.3,1.7
		c-0.2,0.1-0.4,0.2-0.7,0.2c-45.2,1-85.1-0.7-136,0.4c-4.4,0.1-9.3-0.5-14.7-1.9c-18.6-4.6-37.3-4.3-56,1
		C607.2,811.5,600.6,811.8,590.5,811.5z M709,789.8c0-3.9-3.2-7.1-7.1-7.1c0,0,0,0,0,0c-3.9,0-7.1,3.2-7.1,7.1s3.2,7.1,7.1,7.1
		S709,793.8,709,789.8C709,789.8,709,789.8,709,789.8z M780.5,792.8c0-3.9-3.1-7-7-7c-3.9,0-7,3.1-7,7l0,0c0,3.9,3.1,7,7,7h0
		C777.3,799.8,780.5,796.7,780.5,792.8L780.5,792.8z" class="st5"></path>
	<path d="M484.9,777c9.4,20.5-16.9,27.9-31.6,26.5C463,793.5,473.5,784.6,484.9,777z" class="st2"></path>
	<circle r="7" cy="789.8" cx="400.3" class="st0"></circle>
	<circle r="7.1" cy="789.8" cx="701.9" class="st0"></circle>
	<circle r="7" cy="792.8" cx="773.5" class="st0"></circle>
	<path d="M313.7,856.1c-9.8-7-6.9-33.1-4.5-42.7c4.1-16.8,33.2-26.8,44.9-12.2c7.4,9.3,13.5,19.2,18.3,29.9
		C386.6,862.8,328,866.4,313.7,856.1z" class="st3"></path>
	
		<ellipse ry="7.7" rx="30.9" cy="824.3" cx="640.1" class="st3" transform="matrix(1 -1.745326e-03 1.745326e-03 1 -1.4376 1.1184)"></ellipse>
</g>
</svg>
